<?xml version="1.0" encoding="iso-8859-1"?>
<!-- Generator: Adobe Illustrator 19.0.0, SVG Export Plug-In . SVG Version: 6.00 Build 0)  -->
<svg version="1.1" id="Capa_1" xmlns="http://www.w3.org/2000/svg" xmlns:xlink="http://www.w3.org/1999/xlink" x="0px" y="0px"
	 viewBox="0 0 507.008 507.008" style="enable-background:new 0 0 507.008 507.008;" xml:space="preserve">
<g>
	<g>
		<g>
			<path d="M445.518,323.776l31.856-3.2c-1.256-12.438-4.627-24.569-9.968-35.872l-29.008,13.536
				C442.214,306.282,444.622,314.92,445.518,323.776z"/>
			<path d="M423.358,275.872l23.6-21.616c-8.341-9.12-18.059-16.878-28.8-22.992l-15.824,27.808
				C410.172,263.547,417.264,269.215,423.358,275.872z"/>
			<path d="M430.59,368.736c-10.228,10.042-24.069,15.544-38.4,15.264c-37.887-1.679-70.225-27.925-79.664-64.656l-22.4-91.04
				l86.4,21.248l7.616-31.072l-46.656-11.472c25.424-45.234,10.224-102.485-34.288-129.152
				c8.626-27.331,33.996-45.899,62.656-45.856V0c-41.709,0.046-78.779,26.592-92.256,66.064c-13.019-2.752-26.469-2.752-39.488,0
				C220.633,26.592,183.563,0.046,141.854,0v32c28.62,0.019,53.937,18.56,62.592,45.84c-44.588,26.707-59.764,84.086-34.208,129.344
				L118.894,219.6c-41.061,10.525-73.456,42.043-85.104,82.8c-9.844,31.21-1.909,65.304,20.704,88.96
				c16.31,16.077,38.38,24.952,61.28,24.64c9.363-0.049,18.675-1.373,27.68-3.936c2.88-0.816,5.616-1.968,8.416-2.992
				c24.841,36.539,56.523,67.922,93.296,92.416l8.624,5.52l8.624-5.52c36.681-24.442,68.299-55.735,93.12-92.16
				c11.729,4.372,24.139,6.631,36.656,6.672c22.839,0.388,44.858-8.503,61.024-24.64c9.153-9.104,16.042-20.229,20.112-32.48
				l-30.4-10.128C440.426,356.283,436.202,363.126,430.59,368.736z M214.181,109.624c11.309-8.886,25.291-13.687,39.673-13.624
				c35.222-0.125,63.877,28.326,64.003,63.548c0.051,14.238-4.665,28.084-13.395,39.332l-26.048-6.4l-24.56-0.48v16h-0.304l0.304-16
				h-20.8l-29.616,7.152C181.682,171.463,186.492,131.38,214.181,109.624z M275.902,304h-44.016l15.744-64h12.8L275.902,304z
				 M134.878,381.248c-20.086,6.817-42.295,2.007-57.76-12.512c-14.525-15.461-19.337-37.674-12.512-57.76
				c8.462-29.668,32.024-52.622,61.904-60.304l91.04-22.4l-22.4,91.056C187.491,349.212,164.545,372.785,134.878,381.248z
				 M253.854,468.528c-20.958-15.261-40.087-32.886-57.008-52.528H310.83C293.909,435.63,274.792,453.255,253.854,468.528z
				 M192.366,384c14.108-13.218,24.751-29.702,30.992-48h61.152c6.249,18.302,16.903,34.786,31.024,48H192.366z"/>
		</g>
	</g>
</g>
<g>
</g>
<g>
</g>
<g>
</g>
<g>
</g>
<g>
</g>
<g>
</g>
<g>
</g>
<g>
</g>
<g>
</g>
<g>
</g>
<g>
</g>
<g>
</g>
<g>
</g>
<g>
</g>
<g>
</g>
</svg>
