<?xml version="1.0" encoding="UTF-8" standalone="no"?>
<svg
   xmlns:dc="http://purl.org/dc/elements/1.1/"
   xmlns:cc="http://creativecommons.org/ns#"
   xmlns:rdf="http://www.w3.org/1999/02/22-rdf-syntax-ns#"
   xmlns:svg="http://www.w3.org/2000/svg"
   xmlns="http://www.w3.org/2000/svg"
   height="43.900002"
   width="43.530396"
   xml:space="preserve"
   viewBox="0 0 43.530396 43.900002"
   y="0px"
   x="0px"
   id="SVG"
   version="1.1"><metadata
   id="metadata124"><rdf:RDF><cc:Work
       rdf:about=""><dc:format>image/svg+xml</dc:format><dc:type
         rdf:resource="http://purl.org/dc/dcmitype/StillImage" /><dc:title></dc:title></cc:Work></rdf:RDF></metadata><defs
   id="defs122" />








<path
   id="path111"
   d="m 23.425,36.3 -0.4,-2 c -1.6,-0.4 -3.3,-1.3 -4.5,-2.4 l -1.5,1 v -4.8 l -1.7,4.2 -0.2,0.1 c 0,0 -3.5,2.1 -5.8,7.4 0.1,0.1 0.2,0.2 0.3,0.2 0,0 0,0 0.1,0.1 0.1,0 0.1,0.1 0.2,0.1 0.3,0.2 0.9,0.6 1.8,1 0.1,-0.8 0.7,-2 0.7,-2 1.2,-2 3.4,-4.3 6.9,-4.9 l 2.5,4.3 6,4.3 c 1,-0.3 1.9,-0.6 2.9,-1.1 -2.4,-1.6 -6.7,-4.9 -7,-5 -0.1,-0.1 -0.2,-0.3 -0.3,-0.5 z"
   class="st0"
   fill="#ffffff" />
<path
   id="path113"
   d="m 17.225,25.5 v -2.4 l 1.5,0.6 -0.9,-2.4 c -0.3,-0.6 -2.4,-1.3 -2.1,1.5 0.2,1.8 0.9,2.5 1.5,2.7 z"
   class="st0"
   fill="#ffffff" />
<path
   id="path115"
   d="m 37.525,23.6 c 2,-6 -1,-11 -1,-11 -0.2,2.4 -2.1,5.6 -2.1,5.6 0.8,-6.6 -8.2,-13.5 -8.2,-13.5 l -3.4,-2.4 c 0,2.9 -2.5,3.9 -2.5,3.9 -0.4,-3.4 -2.8,-5.2 -2.8,-5.2 -0.4,2.4 -2.7,3.9 -4.5,5.5 -5.5,5 -5.8,10.1 -5.8,10.1 -0.4,-2.2 -1,-4.7 -1,-4.7 -5,10.1 -0.4,17.2 -0.4,17.2 -2.3,-1.2 -3.4,-3 -4.4,-4.8 -0.6,1.3 -0.5,3.3 -0.1,4.6 1,3.4 3,6.4 5.4,8.8 0.4,0.5 0.9,0.9 1.4,1.3 2.1,-4.7 5.1,-7 6,-7.5 l 0.8,-2 -0.1,-0.2 -0.5,-1.1 -0.9,1 -1.9,1.4 v -2.8 l -1.4,0.5 1.1,-6 -1.1,0.4 c 0.2,-1 0.7,-3.2 1.9,-6.1 1.1,-2.5 4.6,-5.9 8.1,-5.6 l 0.6,0.1 -1.3,-1.7 c 1.2,-0.1 4.4,-0.1 6.2,1.8 2,2.1 4.9,7.2 5.7,8.7 h -1 l 2.4,4.1 -2.3,0.6 0.1,0.3 c 0,0.2 1,4.4 5.5,7 -0.8,0.7 -3.4,2.7 -7.6,2.3 l -0.7,-0.1 1,1.1 c -0.9,0 -2.5,0 -3.9,-0.1 l 0.1,0.7 c 1.1,0.8 5.5,4.1 7.4,5.4 1.4,-0.8 2.7,-1.8 3.9,-2.9 2.5,-2.2 4.4,-4.8 5.5,-7.8 1.1,-3.5 1.2,-8 -0.5,-11.3 -1.3,2.5 -3.7,4.4 -3.7,4.4 z"
   class="st0"
   fill="#ffffff" />
<path
   id="path117"
   d="m 18.925,17.9 c 0.5,0.3 1.2,0.8 1.3,1.4 0.1,0.3 0,0.7 -0.3,1 -0.5,0.6 0.8,3.6 1.9,5.5 l 0.2,0.4 -1.4,0.1 c 0.2,0.7 0.6,2.3 2,2.7 l 0.5,0.1 -0.4,0.6 3.8,0.8 -0.6,-1.3 0.6,0.2 c 1,0.3 1.9,0.2 2.7,-0.2 l -0.5,-1 1.2,-0.4 c -0.2,-0.4 -0.5,-1.2 -0.6,-1.5 -0.3,0.3 -1.1,0.7 -2.5,1.1 -0.3,0.1 -0.5,0.1 -0.8,0.1 -1.3,0 -2.2,-1.1 -2.5,-1.8 l -0.2,-0.5 0.5,0.1 c 1.1,0.3 2.1,-0.3 2.1,-0.3 1.2,-0.6 2.3,-1 2.7,-1.1 l -0.1,-1.1 0.7,-0.2 0.1,0.7 1.2,-0.4 -1.9,-3.1 c -0.3,0.4 -0.5,0.9 -0.8,1.4 l -3.4,-0.6 c 0.7,-0.6 1.6,-0.9 1.6,-0.9 l -1.6,-0.2 c 1.6,-0.8 3.6,-0.6 4.7,-0.5 l -2,-3.7 -0.7,-0.4 -0.2,1.2 -1.7,-0.7 -3.3,2.7 0.3,-2 z"
   class="st0"
   fill="#ffffff" />
</svg>
