<?xml version="1.0" encoding="UTF-8" standalone="no"?>
<svg
   xmlns:dc="http://purl.org/dc/elements/1.1/"
   xmlns:cc="http://creativecommons.org/ns#"
   xmlns:rdf="http://www.w3.org/1999/02/22-rdf-syntax-ns#"
   xmlns:svg="http://www.w3.org/2000/svg"
   xmlns="http://www.w3.org/2000/svg"
   viewBox="-2.9307001 -2.9307001 350.17387 355.73279"
   height="831.34882"
   width="818.9303"
   id="svg3666"
   version="1.1">
  <metadata
     id="metadata947">
    <rdf:RDF>
      <cc:Work
         rdf:about="">
        <dc:format>image/svg+xml</dc:format>
        <dc:type
           rdf:resource="http://purl.org/dc/dcmitype/StillImage" />
        <dc:title></dc:title>
      </cc:Work>
    </rdf:RDF>
  </metadata>
  <defs
     id="defs3668" />
  <path
     style="fill:#91c11e;fill-rule:evenodd;stroke:none;stroke-width:1"
     mask="none"
     d="m 294.45986,269.12615 c -10.751,0 -15.24414,7.2025 -15.24414,15.1875 0,8.939 5.72568,14.66818 11.01368,19.70118 5.375,5.034 9.78125,8.9389 9.78125,14.7539 0,4.687 -2.81868,5.98828 -5.63868,5.98828 -4.141,0 -5.8164,-2.77767 -5.8164,-7.63867 v -3.55859 c 0,-1.214 -0.96913,-2.16797 -2.20313,-2.16797 h -5.375 c -1.233,0 -2.20312,0.95397 -2.20312,2.16797 v 4.33984 c 0,9.286 5.99354,15.9707 15.68554,15.9707 9.252,0 15.6836,-6.16281 15.6836,-15.88281 0,-8.591 -5.02202,-13.97259 -11.54102,-20.30859 -5.553,-5.381 -9.2539,-8.93783 -9.2539,-13.79883 0,-3.211 1.58732,-5.81641 5.11132,-5.81641 3.349,0 5.10938,2.2568 5.10938,8.5918 v 1.82422 c 0,0.868 0.79578,1.64844 1.67578,1.64844 h 6.16797 c 1.057,0 1.9375,-0.86816 1.9375,-1.91016 v -2.08203 c 0,-11.716 -5.63863,-17.00977 -14.89063,-17.00977 z m -114.17968,1.04102 c -1.234,0 -2.20313,0.95592 -2.20313,2.16992 v 58.32031 c 0,1.215 0.96913,2.16993 2.20313,2.16993 h 6.16797 c 1.233,0 2.20312,-0.95493 2.20312,-2.16993 v -24.56054 c 0,-0.434 0.44181,-0.86719 0.88281,-0.86719 h 9.69141 c 1.234,0 2.20508,-0.95592 2.20508,-2.16992 v -4.59961 c 0,-1.214 -0.97108,-2.16992 -2.20508,-2.16992 h -9.69141 c -0.441,0 -0.88281,-0.43319 -0.88281,-0.86719 v -15.36328 c 0,-0.433 0.44181,-0.86719 0.88281,-0.86719 h 14.00977 c 1.234,0 2.20508,-0.95392 2.20508,-2.16992 v -4.68555 c 0,-1.214 -0.97108,-2.16992 -2.20508,-2.16992 z m 32.67187,0 c -1.233,0 -2.20117,0.95592 -2.20117,2.16992 v 58.32031 c 0,1.215 0.96817,2.16993 2.20117,2.16993 h 6.16992 c 1.234,0 2.20313,-0.95493 2.20313,-2.16993 v -22.99804 c 0,-0.434 0.43886,-0.86719 0.88086,-0.86719 h 2.02539 c 0.53,0 0.97144,0.34619 1.14844,0.86719 l 6.34375,23.08593 c 0.352,1.215 1.49831,2.08204 2.82031,2.08204 h 5.90234 c 1.146,0 1.85289,-1.04104 1.58789,-2.08204 l -7.40234,-24.56054 c -0.177,-0.521 0.0873,-1.0428 0.52734,-1.2168 4.847,-2.517 6.875,-6.24864 6.875,-16.05664 0,-10.674 -2.46768,-18.74414 -14.80468,-18.74414 z m 36.45117,0 c -1.233,0 -2.20117,0.95592 -2.20117,2.16992 v 58.32031 c 0,1.215 0.96817,2.16993 2.20117,2.16993 h 23.53125 c 1.233,0 2.20118,-0.95493 2.20118,-2.16993 v -4.94531 c 0,-1.216 -0.96818,-2.16992 -2.20118,-2.16992 h -14.36523 c -0.44,0 -0.88086,-0.43419 -0.88086,-0.86719 v -17.01172 c 0,-0.434 0.44086,-0.86718 0.88086,-0.86718 h 9.25195 c 1.234,0 2.20508,-0.95393 2.20508,-2.16993 v -4.42578 c 0,-1.216 -0.97108,-2.17187 -2.20508,-2.17187 h -9.25195 c -0.44,0 -0.88086,-0.43219 -0.88086,-0.86719 v -15.01367 c 0,-0.434 0.44086,-0.86914 0.88086,-0.86914 h 13.6582 c 1.234,0 2.20508,-0.95392 2.20508,-2.16992 v -4.77149 c 0,-1.214 -0.97108,-2.16992 -2.20508,-2.16992 z m 67.54102,0 c -1.234,0 -2.20117,0.95592 -2.20117,2.16992 v 58.32031 c 0,1.215 0.96717,2.16993 2.20117,2.16993 h 6.08203 c 1.233,0 2.20117,-0.95493 2.20117,-2.16993 v -24.03906 c 0,-0.434 0.44281,-0.86719 0.88281,-0.86719 h 9.42969 c 0.44,0 0.87891,0.43319 0.87891,0.86719 v 24.03906 c 0,1.215 0.97208,2.16993 2.20508,2.16993 h 6.08008 c 1.23399,0 2.20312,-0.95493 2.20312,-2.16993 v -58.32031 c 0,-1.214 -0.96913,-2.16992 -2.20312,-2.16992 h -6.08008 c -1.233,0 -2.20508,0.95592 -2.20508,2.16992 v 23.3457 c 0,0.433 -0.43891,0.86914 -0.87891,0.86914 h -9.42969 c -0.43999,0 -0.88281,-0.43614 -0.88281,-0.86914 v -23.3457 c 0,-1.214 -0.96817,-2.16992 -2.20117,-2.16992 z m -94.73828,8.67773 h 3.25976 c 4.76,0 6.16993,2.1706 6.16993,9.8086 0,7.637 -1.40993,9.80664 -6.16993,9.80664 h -3.25976 c -0.442,0 -0.88086,-0.43414 -0.88086,-0.86914 v -17.87696 c 0,-0.434 0.43886,-0.86914 0.88086,-0.86914 z"
     id="Fill-1" />
  <path
     style="fill:#91c11e;fill-rule:evenodd;stroke:none;stroke-width:1"
     mask="none"
     id="Fill-6"
     d="m 160.45313,323.5322 c -0.68,1.21 -1.372,2.038 -2.117,2.534 -0.326,0.218 -0.969,0.452 -1.606,0.452 -0.596,0 -1.055,-0.184 -1.405,-0.562 -5.302,-5.735 -5.352,-27.682 -0.086,-36.693 1.776,-3.037 4.075,-3.365 4.981,-3.365 0.14,0 0.276,0.007 0.408,0.021 1.376,0.14 2.492,2.148 2.801,2.76 4.031,8.006 1.703,26.724 -2.976,34.853 z m -35.537,-26.575 c 0.023,-19.185 3.063,-29.552 5.375,-31.965 0.268,-0.281 0.52,-0.436 0.709,-0.436 0.566,0 1.43,1.598 1.495,6.006 0,0 0.012,0.422 0.012,0.53 0,5.977 -0.741,12.126 -2.1,18.299 -1.634,7.415 -4.622,13.649 -5.236,14.887 -0.163,-2.374 -0.249,-4.84 -0.255,-7.321 z m -22.089,-30.556 c 0.33,-0.341 0.635,-0.52 0.883,-0.52 0.061,0 0.251,0 0.497,0.274 0.891,0.991 1.816,4.423 0.891,10.97 -2.553,18.071 -7.670001,25.873 -7.670001,25.873 -0.593,-20.706 2.375,-33.48 5.399001,-36.597 z m -39.608001,38.342 0.019,-0.13 c 2.074,-14.067 5.281,-19.079 7.591,-19.079 0.813,0 1.424,0.65 1.793,1.194 2.596,3.827 2.528,9.884 -0.157,14.087 -2.135,3.341 -5.35,4.042 -7.67,4.042 -0.487,0 -0.973,-0.032 -1.444,-0.096 z m 101.604001,-23.674 c -2.036,-1.075 -3.949,-1.597 -5.848,-1.597 -1.942,0 -3.879,0.56 -5.922,1.714 -5.546,3.132 -8.923,10.459 -10.627,21.524 -2.222,10.729 -7.894,21.198 -10.727,21.164 -2.396,-0.029 -4.219,-4.162 -5.369,-10.185 5.731,-10.721 10.035,-24.942 11.276,-37.375 0.221,-2.208 0.335,-4.303 0.341,-6.231 l -10e-4,-0.197 c -0.25,-9.989 -4.556,-13.75 -8.499,-13.939 -0.076,-0.004 -0.152,-0.005 -0.228,-0.005 -1.883,0 -3.827,1.136 -5.625,3.286 -3.537,4.232 -6.201,11.772 -7.5,21.231 -0.654,4.755 -0.914,9.89 -0.831,15.261 l -0.022,-0.003 c -0.164,7.332 0.506,13.935 1.773,19.473 0.148,0.933 0.284,1.861 0.451,2.8 l 0.012,0.063 -0.096,0.108 c -2.362,2.896 -4.811,5.124 -7.082,6.441 l -0.434,0.265 0.011,0.022 -0.283,0.184 -0.036,-0.046 -0.383,0.182 c -1.037,0.492 -2.008,0.743 -2.879,0.743 l -0.09,-0.002 c -3.693,-0.067 -6.372001,-4.8 -7.963001,-14.067 l -0.007,-0.041 0.142,-0.278 c 5.854001,-10.193 8.828001,-20.544 8.955001,-20.988 l 0.179,-0.675 c 3.955,-13.072 4.008,-24.144 0.139,-29.619 -1.367,-1.938 -3.149,-3.004 -5.15,-3.08 -0.094,-0.004 -0.188,-0.005 -0.282,-0.005 -2.412001,0 -4.647001,1.174 -6.642001,3.49 -7.354,8.539 -9.697,30.305 -5.97,55.45 l 0.009,0.059 -0.039,0.046 c -2.599,3.039 -5.359,5.458 -8.198,7.186 -3.586,2.13 -6.456,2.619 -7.843,2.721 -0.192,0.011 -0.382,0.023 -0.569,0.023 -2.163,0 -4.012,-0.767 -5.497,-2.28 -2.552,-2.599 -3.996,-7.778 -4.065,-14.584 l -0.002,-0.163 0.159,0.032 c 1.403,0.29 2.703,0.43 3.975,0.43 4.684,0 8.609,-1.707 11.352,-4.938 2.352,-2.769 3.701,-6.611 3.701,-10.539 0,-9.046 -5.938,-13.166 -11.455,-13.166 -2.541,0 -6.316,0.802 -9.876,4.626 -3.23,3.469 -5.565,8.665 -6.939,15.442 l -0.034,0.173 -0.155,-0.084 c -1.523,-0.81 -3.908,-2.032 -7.026,-3.282 l -0.084,-0.034 0.007,-0.377 c 0.131,-6.735 0.348,-13.877 0.56,-20.851 0.147,-4.856 0.296,-9.759 0.419,-14.608 0.102,-2.125 -0.442,-3.827 -1.616,-5.06 -1.754,-1.839 -4.528,-2.225 -6.547,-2.225 -0.837,0 -1.537,0.066 -1.978,0.122 -0.498,0.064 -0.843,0.496 -0.786,0.982 0.622,5.398 0.85,21.42 0.555,38.961 l -0.003,0.159 -0.155,-0.033 c -1.294,-0.274 -2.512,-0.482 -3.734,-0.635 l -0.354,-0.038 c -2.846,-0.415 -5.53,-0.668 -7.978,-0.753 -0.656,-0.023 -1.304,-0.033 -1.945,-0.033 -0.151,0 -0.594,0.004 -0.961,0.007 l 0.005,-0.137 c 0.379,-10.126 0.945,-19.659 0.95,-19.756 0.106,-2.212 -0.46,-3.985 -1.682,-5.268 -1.825,-1.914 -4.716,-2.316 -6.819,-2.316 -0.839999,0 -1.537999,0.063 -1.976999,0.115 -0.55,0.067 -0.941,0.535 -0.89,1.065 0.373,3.837 0.577,15.527 0.472,27.193 l -10e-4,0.106 -0.103,0.022 c -4.0610001,0.86 -7.4020001,1.993 -9.0320001,2.592 -0.87,0.318 -2.103,0.847 -3.66500004,1.573 -2.63399996,1.224 -2.75299996,4.191 -2.05399996,6.36 0.463,1.434 1.34099996,2.316 1.45199996,2.422 0.261,0.24 0.597,0.371 0.944,0.371 0.166,0 0.329,-0.028 0.484,-0.083 0.35,-0.126 2.65000004,-1.122 3.41100004,-1.46 0.241,-0.109 0.5,-0.207 0.823,-0.331 0.191,-0.072 0.385,-0.146 0.577,-0.225 l 0.441,-0.177 c 0.366,-0.149 0.749,-0.303 1.173,-0.449 0.655,-0.25 1.272,-0.509 1.958,-0.797 0.995,-0.419 2.0250001,-0.852 3.2770001,-1.27 l 0.177,-0.059 -0.005,0.187 c -0.036,1.507 -0.078,2.979 -0.126,4.399 -0.268,7.773 -0.789,32.174 -0.811,33.207 -0.213,4.682 0.523,7.837 2.25,9.645 1.930999,2.021 4.805999,2.021 6.903999,2.021 l 1.298,10e-4 c 0.27,0 0.524,-0.112 0.696,-0.307 0.165,-0.186 0.242,-0.435 0.21,-0.685 -1.184,-9.122 -0.866,-33.206 -0.674,-43.147 0,-2.136 0.034,-4.595 0.102,-7.309 l 0.003,-0.112 0.11,-0.015 c 1.207,-0.159 2.311,-0.283 3.374,-0.379 1.661,-0.14 3.417,-0.211 5.219,-0.211 1.112,0 2.27,0.028 3.443,0.083 l 0.202,0.008 c 0.2,0.01 0.399,0.02 0.608,0.034 l 0.507,0.037 c 0.524,0.046 1.073,0.109 1.668,0.191 l 0.115,0.016 -0.039,1.753 c -0.142,6.441 -0.336,15.263 -0.598,20.794 -0.204,4.489 0.503,7.514 2.161,9.249 1.713,1.792 4.106,1.94 6.613,1.94 l 1.17,10e-4 c 0.289,0 0.561,-0.119 0.743,-0.327 0.175,-0.196 0.257,-0.459 0.225,-0.721 -0.685,-5.514 -1.005,-16.783 -0.855,-30.143 l 0.003,-0.185 0.173,0.063 c 3.151,1.131 5.512,2.293 6.381,2.741 l 0.075,0.039 -0.005,0.084 c -0.524,9.519 1.596,17.338 5.968,22.019 2.931,3.135 6.751,4.792 11.048,4.792 5.822,0 11.413,-2.307 16.612,-6.854 1.836,-1.568 3.194,-3.037 4.01,-3.994 l 0.148,-0.173 0.136,0.381 c 2.524,6.792 6.954,10.687 12.153001,10.687 0.041,0 0.082,-0.002 0.184,-0.011 0.459,-0.006 0.938,-0.034 1.475,-0.087 0.051,-0.002 0.103,-0.005 0.152,-0.011 1.603,-0.192 3.244,-0.655 4.883,-1.379 l 0.083,-0.037 c 0.407,-0.183 0.8,-0.381 1.189,-0.589 0.287,-0.156 0.573,-0.318 0.91,-0.52 0.105,-0.062 0.329,-0.194 0.408,-0.243 2.95,-1.846 5.143,-4.128 6.463,-5.717 l 0.131,-0.158 0.089,0.186 c 1.174,2.474 2.612,4.442 4.244,5.862 5.725,5.882 13.271,2.712 19.351,-13.51 v 0.008 c 1.312,7.262 4.025,14.296 10.969,15.778 1.03,0.277 2.11,0.418 3.21,0.418 1.157,0 2.311,-0.158 3.427,-0.468 4.927,-1.365 10.601,-9.267 12.176,-23.844 1.087,-10.048 -0.399,-23.235 -8.161,-27.333 z" />
  <g
     transform="matrix(3.7154102,0,0,3.7154102,38.469689,-48.283544)"
     id="g952">
    <path
       d="m 66.773091,21.751 c 0.003,0.12 0.844,0.878 1.249,1.567 0.405,0.689 0.791,1.302 0.9,1.997 0.073,0.466 -0.043,0.616 -0.255,0.616 -1.202,0 -7.009,-8.866 -18.532,-12.022 -6.466,-1.771 -15.467,-2.456 -22.885,0.053 -6.383,2.158 -12.021,6.196 -16.369,11.317 -4.8970004,5.767 -8.0490004,12.683 -8.6710004,20.26 -0.255,3.115 -0.012,6.316 -0.568,9.4 -0.141,0.78 -0.407,1.513 -0.67700002,2.245 -0.136,0.364 -1.251,3.605 0.94700002,8.027 2.082,4.188 8.4870004,4.83 9.0820004,2.945 0.546,-1.729 1.407,-2.115 2.097,-2.115 0.956,0 1.497,0.924 1.986,1.149 32.736,15.084 57.369,-21.891 57.369,-21.891 0.431,-2.498 0.641,-5.038 0.679,-7.572 0.035,-2.323 -0.105,-4.573 0.21,-6.884 0.294,-2.157 0.384,-4.214 -0.675,-6.196 -0.755,-1.404 -2.009,-2.142 -3.467,-2.62 -0.368,-0.12 -2.435,-0.869 -2.42,-0.276 z"
       id="Fill-8"
       mask="none"
       style="fill:#91c11e;fill-rule:evenodd;stroke:none;stroke-width:1" />
    <path
       d="m 13.091091,66.041 c -0.69,0 -1.551,0.386 -2.097,2.115 -0.595,1.885 -7.0000004,1.243 -9.0820004,-2.945 -2.19800002,-4.422 -1.08300002,-7.663 -0.91500002,-8.098 -0.075,0.187 -0.117,0.304 -0.16,0.421 0.053,-0.14 0.101,-0.281 0.159,-0.419 -0.058,0.139 -0.107,0.281 -0.16,0.422 -0.147,0.402 -0.283,0.809 -0.399,1.224 -0.06,0.224 -0.112,0.449 -0.16,0.675 -0.015,0.071 -0.029,0.143 -0.043,0.214 -0.047,0.245 -0.09,0.489 -0.122,0.734 0.032,-0.244 0.075,-0.488 0.122,-0.732 -0.273,1.382 -0.325,2.814 -0.061,4.198 0.729,3.816 3.53300002,5.78 7.07100002,6.81 2.311,0.673 4.5400004,1.26 6.6550004,2.448 1.89,1.062 3.731,2.216 5.731,3.069 8.628,3.679 18.723,3.407 27.432,0.164 8.916,-3.319 16.533,-9.67 21.032,-18.089 2.16,-4.044 3.576,-8.441 4.352,-12.953 0,0 -24.633,36.975 -57.369,21.891 -0.489,-0.225 -1.03,-1.149 -1.986,-1.149 z"
       id="Fill-9"
       mask="none"
       style="fill:#659a41;fill-rule:evenodd;stroke:none;stroke-width:1" />
    <path
       mask="none"
       style="fill:#fffffe;fill-rule:evenodd;stroke:none;stroke-width:1"
       id="Fill-11"
       d="m 28.179091,26.173 c -0.387,0.145 -3.372,-4.165 -1.865,-5.008 9.967,-5.579 25.298,-2.129 32.743,2.597 0.585,0.371 0.842,0.579 0.843,0.677 0.886,1.514 -16.847,-3.826 -31.721,1.734" />
  </g>
</svg>
