<?xml version="1.0" encoding="UTF-8" standalone="no"?>
<svg
   xmlns:dc="http://purl.org/dc/elements/1.1/"
   xmlns:cc="http://creativecommons.org/ns#"
   xmlns:rdf="http://www.w3.org/1999/02/22-rdf-syntax-ns#"
   xmlns:svg="http://www.w3.org/2000/svg"
   xmlns="http://www.w3.org/2000/svg"
   viewBox="0 0 938.48904 939.2463"
   height="939.24628"
   width="938.48901"
   id="svg54"
   version="1.1">
  <metadata
     id="metadata60">
    <rdf:RDF>
      <cc:Work
         rdf:about="">
        <dc:format>image/svg+xml</dc:format>
        <dc:type
           rdf:resource="http://purl.org/dc/dcmitype/StillImage" />
        <dc:title></dc:title>
      </cc:Work>
    </rdf:RDF>
  </metadata>
  <defs
     id="defs58" />
  <g
     transform="translate(-39.103843,-39.039854)"
     id="g62">
    <path
       id="path66"
       d="M 492.8,976.96822 C 332.9953,970.91677 188.82988,886.01181 107.28062,749.92 101.24099,739.8409 91.785536,722.7952 93.199162,724.53485 c 0.397004,0.48857 0.640822,0.49549 2.817724,0.0799 98.734694,-18.847 188.308864,-16.89529 267.450984,5.82746 29.87834,8.57843 71.0777,24.79043 94.05175,37.00941 106.82742,56.81728 222.38947,47.07801 332.56038,-28.02727 39.24352,-26.75296 57.54291,-41.71443 86.56,-70.77088 17.47219,-17.4959 18.06314,-18.38566 14.62554,-22.02064 -1.83671,-1.94217 -0.60266,-2.1304 -28.86554,4.40263 -183.83584,42.49401 -331.16086,75.79341 -374.08,84.55206 -13.68301,2.79232 -11.76784,3.06099 -30.03843,-4.21369 -108.89898,-43.35956 -232.90642,-52.7097 -365.351816,-27.54743 -5.07024,0.96327 -9.245767,1.72035 -9.278948,1.68247 C 82.97944,704.74214 73.498483,682.1135 70.54975,674.24 -59.727482,326.3831 248.28786,-28.893669 610.4,51.555891 987.48544,135.33203 1105.6756,615.05178 811.2,866.57917 724.1952,940.89466 607.60698,981.31571 492.8,976.96822 Z M 365.76,606.91238 c 0,-2.8648 31.55837,-218.38761 31.86726,-217.63238 0.14397,0.352 22.18884,49.456 48.98855,109.12 l 48.72681,108.48 h 19.73984 19.73988 L 582.2777,497.92 c 51.69088,-118.68502 48.51872,-111.48077 48.68137,-110.56 0.0622,0.352 6.9193,49.888 15.23805,110.08 l 15.12496,109.44 36.85898,0.0813 c 20.27241,0.0447 36.85894,0.007 36.85894,-0.083 0,-0.30135 -56.95814,-362.54411 -57.1465,-363.44065 l -0.18534,-0.88227 -21.15523,0.0823 -21.15527,0.0823 -57.18486,130.33936 c -31.45168,71.68669 -57.2696,130.42413 -57.37315,130.52765 -0.10355,0.10355 -0.47027,-0.44515 -0.81491,-1.21936 -0.34464,-0.77421 -26.8072,-59.54365 -58.80567,-130.59879 L 403.04,242.57775 l -20.94938,0.0711 -20.94937,0.0711 -28.87555,181.92 c -15.88155,100.056 -28.88233,182.028 -28.89062,182.16 -0.008,0.132 14.02492,0.24 31.18492,0.24 17.16,0 31.2,-0.0574 31.2,-0.12762 z M 86.131981,710.8663 c -0.536157,-1.17673 -0.433866,-1.42777 0.145875,-0.35801 0.270726,0.49955 0.432352,0.96816 0.359168,1.04134 -0.07318,0.0732 -0.300454,-0.2343 -0.505043,-0.68333 z"
       style="fill:#ffffff;fill-opacity:1;stroke-width:0.32" />
  </g>
</svg>
